<?xml version="1.0" encoding="UTF-8" standalone="no"?>
<svg
   height="2500"
   viewBox="0 0 900 900"
   width="2500"
   version="1.1"
   id="svg4"
   sodipodi:docname="icon.svg"
   inkscape:version="1.2 (dc2aedaf03, 2022-05-15)"
   xmlns:inkscape="http://www.inkscape.org/namespaces/inkscape"
   xmlns:sodipodi="http://sodipodi.sourceforge.net/DTD/sodipodi-0.dtd"
   xmlns="http://www.w3.org/2000/svg"
   xmlns:svg="http://www.w3.org/2000/svg">
  <defs
     id="defs8" />
  <sodipodi:namedview
     id="namedview6"
     pagecolor="#ffffff"
     bordercolor="#666666"
     borderopacity="1.0"
     inkscape:showpageshadow="2"
     inkscape:pageopacity="0.0"
     inkscape:pagecheckerboard="0"
     inkscape:deskcolor="#d1d1d1"
     showgrid="false"
     inkscape:zoom="0.13350176"
     inkscape:cx="1176.0145"
     inkscape:cy="906.35509"
     inkscape:window-width="1920"
     inkscape:window-height="1017"
     inkscape:window-x="-8"
     inkscape:window-y="-8"
     inkscape:window-maximized="1"
     inkscape:current-layer="svg4" />
  <g
     id="g347"
     transform="translate(1472.0339,171.61017)">
    <rect
       style="fill:#ffffff;fill-rule:evenodd;stroke-width:6.80314;paint-order:stroke fill markers"
       id="rect343"
       width="690.25427"
       height="633.05084"
       x="-1369.0677"
       y="-41.94915" />
    <path
       d="m -1472.0339,278.38983 v 449.99998 h 899.99996 v -899.99998 h -899.99996 z m 261.1999,-255.5 c 16.6,2.9 25.2,4.6 30.3,5.9 10.9,3 17.1,4.9 20.3,6.2 1.8,0.8 3.9,1.4 4.7,1.4 0.8,0 2.9,0.6 4.7,1.4 1.8,0.8 7.2001,3.1 12.0001,5 10.5,4.4 28.3,13.4 34.4,17.6 2.5,1.6 4.7,3 4.9,3 0.5,0 17.6,12.3 21.3,15.3 3.4,2.8 42,41.4 48.7,48.7 19.2,20.9 42.69996,49.8 69.79996,85.8 1.5,2 3.4,4.4 4.1,5.4 0.8,0.9 11.8,15.5 24.6,32.5 12.7,16.9 23.8,30.9 24.6,31.1 1.2,0.3 1.4,-11.9 1.4,-86.1 0,-72.2 0.2,-86.6 1.4,-87.6 0.9,-0.8 8.2,-1.1 24.2,-0.9 l 22.9,0.3 0.5,174.8 c 0.3,96.2 0.1,175.1 -0.3,175.4 -0.4,0.3 -2,-0.3 -3.5,-1.3 -3.5,-2.2 -30.1,-28.9 -37.3,-37.3 -3,-3.5 -6.1,-7.1 -6.9,-8 -0.9,-0.9 -3.3,-3.9 -5.5,-6.6 -2.2,-2.8 -4.2,-5.2 -4.5,-5.5 -0.6,-0.5 -10.4,-13 -16.3,-20.8 -1.5,-2 -3.3,-4.4 -4,-5.2 -1.6,-1.9 -6.3,-8.4 -22.8,-31.1 -4.6,-6.4 -13.3,-18.5 -19.4,-26.9 -10.7,-14.9 -59.79996,-80.9 -62.89996,-84.6 -0.8,-1.1 -2.8,-3.6 -4.3,-5.6 -7.8,-10.2 -33.1,-43.1 -37.6,-48.8 -47.5,-60.1 -60.8,-74.2 -92.2001,-97.7 -17.3,-12.9 -34.5,-22.9 -49.5,-28.8 -4.2,-1.6 -6.4,-2.4 -15,-5.5 -1.9,-0.6 -5.4,-1.6 -7.8,-2.1 -2.3,-0.5 -5.1,-1.3 -6.1,-1.9 -1.1,-0.5 -3.3,-1 -5,-1 -1.6,0 -4.2,-0.5 -5.8,-1.1 -1.5,-0.6 -6.6,-1.5 -11.3,-2 -25.2,-2.7 -29.7,-3 -40,-1.9 -21.1,2.2 -25.3,2.4 -24.8,1 0.6,-1.9 15.1,-6.4 29.8,-9.4 17,-3.4 21,-4 30.5,-4.7 16.2,-1.2 57.2,-0.2 67.7,1.6 z m 40.8,94.4 c 8.6,8.6 18.1,18.5 21.1,22 3,3.5 6.1001,7.1 6.9001,8 0.9,0.9 3.3,3.8 5.5,6.6 2.2,2.7 4.2,5.2 4.5,5.5 0.6,0.5 10.4,13 16.3,20.8 1.5,2 3.5,4.6 4.4,5.7 1,1.1 3.6,4.7 6,8 2.3,3.3 7.4,10.3 11.2,15.5 3.9,5.2 9.1,12.4 11.5,16 2.4,3.6 7.6,10.8 11.5,16 3.9,5.2 8.1,11.1 9.5,13 4.3,6.2 53.9,72.5 54.6,73 0.3,0.3 2.1,2.5 3.8,5 2.9,4 7.79996,10.3 11.59996,15.1 0.7,0.9 6.1,7.8 11.9,15.5 42.8,56 66.4,83.3 88.2,102.1 7,6 31,24.3 31.9,24.3 0.2,0 3.2,1.8 6.4,4 6.2,4.1 23.3,13.2 26.8,14.3 1,0.3 4.4,1.5 7.4,2.7 3,1.2 6.9,2.5 8.5,3 1.7,0.5 4.4,1.3 6,1.9 23.3,8 59.8,11 89.3,7.3 6.3,-0.8 9.6,-0.1 7.7,1.6 -1.2,0.9 -8.6,3.4 -17,5.5 -13.8,3.5 -16.3,4 -21.5,4.7 -3,0.4 -8.2,1.3 -11.5,2 -9.6,2.1 -63.1,1.9 -76.5,-0.3 -21.3,-3.6 -43.3,-8.8 -51.8,-12.3 -1.8,-0.8 -3.9,-1.4 -4.7,-1.4 -0.8,0 -3.1,-0.7 -5.2,-1.6 -8.9,-3.8 -11,-4.7 -13.8,-5.9 -3.9,-1.6 -23.4,-11.2 -26,-12.8 -1.1,-0.7 -3.9,-2.4 -6.3,-4 -2.4,-1.5 -4.5,-2.7 -4.7,-2.7 -0.5,0 -17.6,-12.3 -21.3,-15.3 -3.3,-2.7 -41.79996,-41.2 -48.69996,-48.7 -18.9,-20.5 -42.6,-49.7 -69.8,-85.8 -1.5,-2 -3.4,-4.4 -4.1,-5.4 -0.8,-0.9 -11.8,-15.5 -24.6,-32.5 -14.1,-18.7 -23.8,-30.8 -24.8,-30.8 -1.6,0 -1.7,6.7 -1.9,86 -0.1,47.2 -0.5,86.5 -0.7,87.2 -0.7,1.8 -45.6001,1.9 -47.4001,0.1 -0.9,-0.9 -1.2,-41.2 -1.2,-175.3 0,-95.8 0.3,-174.5 0.6,-174.8 1.3,-1.3 5.2,2 20.4,17.2 z"
       id="path2" />
  </g>
</svg>
