<svg xmlns="http://www.w3.org/2000/svg" viewBox="0 0 269.159 94.781"><defs><style>.cls-1{fill:#231f20;}</style></defs><g id="Capa_2" data-name="Capa 2"><g id="Layer_1" data-name="Layer 1"><path d="M70.354,6.323V31.207H87.393l-.018-2.784c-3.263.082-7.367.6-10.722.271V19.757a63.057,63.057,0,0,1,8.554.145V16.943a49.111,49.111,0,0,1-8.554.132V8.854c3.355-.351,7.459.187,10.722.252l.018-2.783Zm84.427,0V31.207h17.028V28.423c-3.281.082-7.371.6-10.721.271V19.757a63.267,63.267,0,0,1,8.565.145V16.943a49.372,49.372,0,0,1-8.575.132c0-.531.01-8.221.01-8.221,3.35-.351,7.44.187,10.721.252V6.323ZM137.481,18.2V9.078s5.418-.811,6.91,1.79a6.162,6.162,0,0,1-.217,5.676c-1.269,1.536-3.713,1.656-5.723,1.656-.338,0-.664,0-.97,0m6.326-11.874H131.186V31.207l6.347.007V20.923h3.6c1.2,2.009,3.656,7.716,4.039,8.612l.748,1.672h6.77l-.616-1.156c-.025-.045-.05-.092-.072-.141l-.771-1.461c-1.651-3.089-2.977-5.672-4.42-9.022a3.18,3.18,0,0,1,.547-.264c2.3-1.1,3.824-3.085,3.787-6.533-.11-4.212-3.953-6.306-7.319-6.307ZM115.852,19.1l.021-9.982s5.61-.785,7.084,1.772c.858,1.519,1.059,4.944-.207,6.64-1.133,1.334-3.3,1.633-5.234,1.633-.592,0-1.158-.027-1.664-.063m6.185-12.779H109.576V31.207l6.319.007V23.79l-.012-1.7s9.012.5,11.553-2.868c1.9-2.164,2-5.622,1.224-8.3a6.4,6.4,0,0,0-6.6-4.6ZM89.475,9.629A6.14,6.14,0,0,0,91.414,17.9c3.475,2.761,9.176,4.083,9.885,6.314a3.061,3.061,0,0,1-.908,3.214c-3.09,2.857-8.033,1.066-11.225-.358l-.01,3.083a19.526,19.526,0,0,0,11.713,1.111c2.666-.589,5.651-2.937,6.125-5.832.491-2.853-.113-4.717-2-6.306-2.879-2.5-6.377-3.285-8.834-4.972a2.59,2.59,0,0,1-.589-3.987c2.074-2.311,6.4-1.222,7.408-.991a22.674,22.674,0,0,1,3.174,1.321V7.375a31.536,31.536,0,0,0-8.467-1.4c-3.342,0-6.485.888-8.211,3.651m84.508,0a6.139,6.139,0,0,0,1.935,8.266c3.477,2.761,9.176,4.083,9.887,6.314a3.078,3.078,0,0,1-.9,3.214c-3.088,2.857-8.032,1.066-11.229-.358l-.01,3.083a19.531,19.531,0,0,0,11.715,1.111c2.666-.589,5.647-2.937,6.125-5.832.488-2.853-.121-4.717-2-6.306-2.885-2.5-6.379-3.285-8.844-4.972a2.59,2.59,0,0,1-.588-3.987c2.077-2.311,6.4-1.222,7.407-.991a22.609,22.609,0,0,1,3.181,1.321V7.375a31.5,31.5,0,0,0-8.466-1.4c-3.34,0-6.481.888-8.213,3.651m19.33,0a6.125,6.125,0,0,0,1.941,8.266c3.483,2.761,9.186,4.083,9.873,6.314a3.01,3.01,0,0,1-.908,3.214c-3.07,2.857-8.025,1.066-11.213-.358l-.019,3.083a19.563,19.563,0,0,0,11.724,1.111c2.678-.589,5.647-2.937,6.147-5.832.461-2.853-.141-4.717-2.032-6.306-2.861-2.5-6.365-3.285-8.818-4.972a2.6,2.6,0,0,1-.6-3.987c2.068-2.311,6.394-1.222,7.406-.991A22.582,22.582,0,0,1,210,10.492V7.375a31.6,31.6,0,0,0-8.474-1.4c-3.342,0-6.483.888-8.211,3.651m37.213,8.56c.035,10.177-5.071,9.958-5.778,9.958h-.088c-.7,0-5.795.219-5.759-9.958.041-9.44,4.994-9.169,5.812-9.169s5.772-.271,5.813,9.169M224.707,5.945c-1.646-.013-12.32.165-12.363,12.726,0,12.469,10.537,12.962,12.363,12.949,1.821.013,12.369-.48,12.336-12.949C237.026,6.39,226.836,5.945,224.832,5.945h-.125M42.672,31.158H46.2V18.277c2.465,3.161,5.366,7.191,7.536,9.737.961,1.149,3.427,3.822,4.127,4.4,4.525,4.416,12.832,6.4,19.753,3.972v-.244a14.944,14.944,0,0,1-8.474-.882,20.789,20.789,0,0,1-7.373-5.647c-2.418-2.757-8.2-10.547-8.2-10.547-2.979-3.832-6.954-10.215-10.9-13.423ZM31.862,1.045v.242a15.051,15.051,0,0,1,8.48.883,20.788,20.788,0,0,1,7.377,5.65c2.416,2.76,8.2,10.545,8.2,10.545,2.975,3.838,6.951,10.212,10.9,13.436V6.281H63.293V19.156C60.821,16,57.92,11.97,55.748,9.42c-.955-1.142-3.424-3.813-4.121-4.4A19.631,19.631,0,0,0,38.211,0a19.287,19.287,0,0,0-6.349,1.045"/><polygon class="cls-1" points="140.084 47.398 139.383 46.697 134.773 51.307 130.163 46.697 129.462 47.398 134.072 52.008 129.462 56.619 130.163 57.32 134.773 52.71 139.383 57.32 140.084 56.619 135.474 52.008 140.084 47.398"/><path d="M15.167,89.443A1.119,1.119,0,0,0,14,89.22a3.483,3.483,0,0,0-1.121.758,5,5,0,0,1-1.3.749,6.207,6.207,0,0,1-2.336.434,5.264,5.264,0,0,1-3.944-1.6,6.02,6.02,0,0,1-1.5-4.2,5.946,5.946,0,0,1,1.5-4.172A5.282,5.282,0,0,1,9.244,79.6a6.088,6.088,0,0,1,2.459.513A5.47,5.47,0,0,1,13.3,81.224a1.122,1.122,0,0,0,1.242.327,3.054,3.054,0,0,0,1.11-.905,1.842,1.842,0,0,0,.555-1.182c-.026-.768-.8-1.264-1.363-1.663a9.608,9.608,0,0,0-1.509-.906,9.539,9.539,0,0,0-4.087-.872,9.157,9.157,0,0,0-6.631,2.651,9.966,9.966,0,0,0,0,13.454A9.157,9.157,0,0,0,9.244,94.78a9.686,9.686,0,0,0,3.78-.716,7.525,7.525,0,0,0,2.984-2.136,1.413,1.413,0,0,0,.343-.763,1.566,1.566,0,0,0-.523-1.113,6.1,6.1,0,0,0-.661-.609"/><path d="M33.253,83.166a.413.413,0,0,1-.415.412H26a.413.413,0,0,1-.415-.412v-5.6a1.55,1.55,0,0,0-1.552-1.546h-.645a1.55,1.55,0,0,0-1.553,1.546V93.234a1.548,1.548,0,0,0,1.553,1.545h.645a1.548,1.548,0,0,0,1.552-1.545V87.6A.414.414,0,0,1,26,87.192h6.842a.414.414,0,0,1,.415.412v5.63a1.548,1.548,0,0,0,1.553,1.545h.646a1.549,1.549,0,0,0,1.553-1.545V77.567a1.55,1.55,0,0,0-1.553-1.546h-.646a1.55,1.55,0,0,0-1.553,1.546Z"/><path d="M143.769,93.236a1.549,1.549,0,0,0,1.553,1.545h10.187a1.55,1.55,0,0,0,1.554-1.545V92.71a1.55,1.55,0,0,0-1.554-1.545h-7.472a.516.516,0,0,1-.518-.515V87.7a.515.515,0,0,1,.518-.514h6.877a1.55,1.55,0,0,0,1.553-1.546v-.522a1.55,1.55,0,0,0-1.553-1.546h-6.877a.516.516,0,0,1-.518-.514V80.153a.517.517,0,0,1,.518-.516h7.472a1.549,1.549,0,0,0,1.554-1.545v-.525a1.549,1.549,0,0,0-1.554-1.544H145.322a1.548,1.548,0,0,0-1.553,1.544V93.236Z"/><path d="M212.632,76.961a1.553,1.553,0,0,0-1.429-.94h-.3a1.554,1.554,0,0,0-1.429.94L202.766,92.63a1.545,1.545,0,0,0,1.429,2.15h.649a1.554,1.554,0,0,0,1.434-.952l1.585-3.8a.208.208,0,0,1,.192-.127h5.863a.206.206,0,0,1,.191.127l1.564,3.792a1.556,1.556,0,0,0,1.437.958h.8a1.553,1.553,0,0,0,1.295-.693,1.537,1.537,0,0,0,.134-1.457Zm-2.92,9.309a.205.205,0,0,1-.172-.092.2.2,0,0,1-.02-.192l.671-1.635.594-1.451a.208.208,0,0,1,.384,0l.595,1.451.67,1.635a.207.207,0,0,1-.192.284h-2.53Z"/><path d="M125.02,93.234a1.548,1.548,0,0,0,1.553,1.545h.644a1.548,1.548,0,0,0,1.553-1.545V87.711a.517.517,0,0,1,.518-.515h6.819a1.549,1.549,0,0,0,1.553-1.545v-.523a1.549,1.549,0,0,0-1.553-1.545h-6.819a.516.516,0,0,1-.518-.515V80.152a.517.517,0,0,1,.518-.515h7.472a1.55,1.55,0,0,0,1.554-1.545v-.525a1.55,1.55,0,0,0-1.554-1.545H126.573a1.549,1.549,0,0,0-1.553,1.545V93.234Z"/><path d="M230.8,79.6a5.917,5.917,0,0,1,2.528.5,5.711,5.711,0,0,1,1.992,1.578,1.445,1.445,0,0,0,.915.458,1.518,1.518,0,0,0,.947-.391,5.392,5.392,0,0,0,.841-.887,1.311,1.311,0,0,0,.025-1.678l-.01-.011A8.635,8.635,0,0,0,235.85,77.3a9.7,9.7,0,0,0-5.051-1.281,9.052,9.052,0,0,0-6.547,2.677,9.819,9.819,0,0,0,.02,13.389,9.138,9.138,0,0,0,6.6,2.69,11.077,11.077,0,0,0,5.656-1.415l.117-.071a4.281,4.281,0,0,0,2.018-3.631V86.079a2.516,2.516,0,0,0-2.523-2.51H231.65a1.549,1.549,0,0,0-1.552,1.546V85.6a1.549,1.549,0,0,0,1.552,1.545h1.774a1.548,1.548,0,0,1,1.553,1.545v.225a1.965,1.965,0,0,1-1.35,1.863h0a8.355,8.355,0,0,1-2.644.386,5.438,5.438,0,0,1-4.025-1.595,5.914,5.914,0,0,1-1.532-4.188,6.037,6.037,0,0,1,1.463-4.207A5.171,5.171,0,0,1,230.8,79.6"/><path d="M256.2,87.072a.207.207,0,0,1-.372.125L247.7,76.629a1.557,1.557,0,0,0-1.234-.606h-.8a1.549,1.549,0,0,0-1.553,1.544V93.236a1.55,1.55,0,0,0,1.553,1.545h.645a1.55,1.55,0,0,0,1.554-1.545V83.514a.206.206,0,0,1,.141-.2.209.209,0,0,1,.231.071l8.241,10.782a1.559,1.559,0,0,0,1.237.61h.683a1.549,1.549,0,0,0,1.553-1.545V77.567a1.548,1.548,0,0,0-1.553-1.544h-.644a1.548,1.548,0,0,0-1.553,1.544v9.505Z"/><path d="M266.963,76.023a1.55,1.55,0,0,0-1.553,1.545V93.235a1.55,1.55,0,0,0,1.553,1.546h.643a1.549,1.549,0,0,0,1.553-1.546V77.568a1.549,1.549,0,0,0-1.553-1.545h-.643Z"/><path d="M101.886,76.961a1.553,1.553,0,0,0-1.429-.94h-.3a1.553,1.553,0,0,0-1.429.94L92.02,92.63a1.545,1.545,0,0,0,1.429,2.15H94.1a1.554,1.554,0,0,0,1.434-.952l1.585-3.8a.209.209,0,0,1,.192-.127h5.863a.206.206,0,0,1,.191.127l1.564,3.792a1.555,1.555,0,0,0,1.437.958h.8a1.553,1.553,0,0,0,1.3-.693,1.534,1.534,0,0,0,.133-1.457Zm-2.92,9.309a.205.205,0,0,1-.172-.092.2.2,0,0,1-.02-.192l.67-1.635.595-1.451a.208.208,0,0,1,.384,0l.595,1.451.67,1.635a.207.207,0,0,1-.192.284h-2.53Z"/><path d="M61.86,76.961a1.553,1.553,0,0,0-1.429-.94h-.3a1.553,1.553,0,0,0-1.429.94L51.994,92.63a1.545,1.545,0,0,0,1.429,2.15h.648a1.555,1.555,0,0,0,1.435-.952l1.585-3.8a.206.206,0,0,1,.191-.127h5.864a.207.207,0,0,1,.191.127L64.9,93.822a1.555,1.555,0,0,0,1.437.958h.8a1.553,1.553,0,0,0,1.3-.693,1.534,1.534,0,0,0,.133-1.457ZM58.94,86.27a.205.205,0,0,1-.172-.092.2.2,0,0,1-.02-.192l.67-1.635.595-1.451a.208.208,0,0,1,.384,0l.595,1.451.67,1.635a.207.207,0,0,1-.192.284H58.94Z"/><path d="M45.763,76.023a1.55,1.55,0,0,0-1.554,1.545V93.235a1.55,1.55,0,0,0,1.554,1.546h.642a1.55,1.55,0,0,0,1.554-1.546V77.568a1.55,1.55,0,0,0-1.554-1.545h-.642Z"/><path d="M87.808,83.092a5.779,5.779,0,0,0,.179-1.431,7.67,7.67,0,0,0-.134-1.479,5,5,0,0,0-.4-1.221v0a4.988,4.988,0,0,0-.646-1.012,4.551,4.551,0,0,0-.849-.8l-.007,0a5.313,5.313,0,0,0-.978-.55,5.924,5.924,0,0,0-1.111-.35l-.01,0a10.841,10.841,0,0,0-1.1-.166c-.282-.028-5.808-.045-8.58-.052a1.55,1.55,0,0,0-1.557,1.545V93.232a1.549,1.549,0,0,0,1.553,1.545h.657a1.549,1.549,0,0,0,1.554-1.545V87.724a.206.206,0,0,1,.207-.206h4.99c.31,0,.591.01.841.03a5.06,5.06,0,0,1,.652.092h.006a2.055,2.055,0,0,1,.438.153,1.261,1.261,0,0,1,.272.165.774.774,0,0,1,.165.209.469.469,0,0,1,.05.149c.031.193.057.382.082.569.02.157.038.313.055.467a1.562,1.562,0,0,1,.009.168v3.711A1.548,1.548,0,0,0,85.7,94.777h.658a1.548,1.548,0,0,0,1.553-1.545v-4.45a1.07,1.07,0,0,0-.009-.139c0-.027-.008-.054-.013-.079-.009-.045-.016-.092-.021-.138-.019-.169-.045-.335-.077-.5-.038-.188-.083-.371-.137-.55-.021-.068-.044-.134-.068-.2s-.049-.131-.075-.2c-.011-.028-.021-.057-.031-.085s-.021-.058-.033-.086c-.039-.091-.081-.18-.125-.268s-.091-.173-.139-.257l0,0h0a3.223,3.223,0,0,0-.291-.413.633.633,0,0,1-.015-.788l.06-.081a4.957,4.957,0,0,0,.339-.537l0-.008a6.017,6.017,0,0,0,.534-1.362m-3.86-.223,0,0a2.225,2.225,0,0,1-.339.379,1.619,1.619,0,0,1-.376.25h0a2.748,2.748,0,0,1-.457.171,2.279,2.279,0,0,1-.443.078c-.2.013-.381.023-.532.029s-.275.011-.374.011h-4.84a.207.207,0,0,1-.207-.206v-3.63a.206.206,0,0,1,.207-.206h5.1q.321,0,.623.03a4.993,4.993,0,0,1,.574.09,2.692,2.692,0,0,1,.431.13,1.957,1.957,0,0,1,.363.191l.009.005a.94.94,0,0,1,.209.186,1.242,1.242,0,0,1,.169.262,1.5,1.5,0,0,1,.11.343,3,3,0,0,1,.054.605,3.376,3.376,0,0,1-.091.853,1.242,1.242,0,0,1-.186.426"/><path d="M177.713,83.092a5.779,5.779,0,0,0,.179-1.431,7.67,7.67,0,0,0-.134-1.479,5,5,0,0,0-.4-1.221l0,0a4.984,4.984,0,0,0-.645-1.012,4.583,4.583,0,0,0-.849-.8l-.007,0a5.346,5.346,0,0,0-.978-.55,5.924,5.924,0,0,0-1.111-.35l-.01,0a10.841,10.841,0,0,0-1.1-.166c-.282-.028-5.808-.045-8.58-.052a1.548,1.548,0,0,0-1.557,1.545V93.232a1.548,1.548,0,0,0,1.553,1.545h.657a1.548,1.548,0,0,0,1.553-1.545V87.724a.207.207,0,0,1,.208-.206h4.99c.31,0,.591.01.841.03a5.06,5.06,0,0,1,.652.092h.006a2.055,2.055,0,0,1,.438.153,1.261,1.261,0,0,1,.272.165.774.774,0,0,1,.165.209.5.5,0,0,1,.05.149c.03.193.057.382.082.569.02.157.038.313.055.467a1.562,1.562,0,0,1,.009.168v3.711a1.542,1.542,0,0,0,.454,1.093,1.559,1.559,0,0,0,1.1.452h.658a1.548,1.548,0,0,0,1.553-1.545v-4.45a1.07,1.07,0,0,0-.009-.139c0-.027-.008-.054-.013-.079-.009-.045-.016-.092-.022-.138-.018-.169-.044-.335-.076-.5q-.057-.282-.137-.55c-.021-.068-.044-.134-.068-.2s-.05-.131-.076-.2c-.011-.028-.021-.057-.031-.085s-.021-.058-.033-.086c-.039-.091-.081-.18-.124-.268s-.091-.173-.139-.257l0,0v0a3.154,3.154,0,0,0-.291-.413.633.633,0,0,1-.015-.788l.06-.081a4.957,4.957,0,0,0,.339-.537l0-.008a6.112,6.112,0,0,0,.534-1.362m-3.86-.223,0,0a2.187,2.187,0,0,1-.34.379,1.613,1.613,0,0,1-.375.25h0a2.748,2.748,0,0,1-.457.171,2.288,2.288,0,0,1-.444.078c-.2.013-.38.023-.531.029s-.276.011-.375.011h-4.839a.207.207,0,0,1-.208-.206v-3.63a.207.207,0,0,1,.208-.206h5.1c.214,0,.422.01.622.03a5.011,5.011,0,0,1,.575.09,2.648,2.648,0,0,1,.43.13,1.966,1.966,0,0,1,.364.191l.009.005a.94.94,0,0,1,.209.186,1.242,1.242,0,0,1,.169.262,1.5,1.5,0,0,1,.11.343,3.079,3.079,0,0,1,.054.605,3.376,3.376,0,0,1-.091.853,1.242,1.242,0,0,1-.186.426"/><path d="M198.544,83.092a5.779,5.779,0,0,0,.179-1.431,7.67,7.67,0,0,0-.134-1.479,5,5,0,0,0-.4-1.221l0,0a5.024,5.024,0,0,0-.644-1.012,4.62,4.62,0,0,0-.85-.8l-.008,0a5.281,5.281,0,0,0-.978-.55,5.89,5.89,0,0,0-1.11-.35l-.01,0a10.841,10.841,0,0,0-1.1-.166c-.282-.028-5.809-.045-8.58-.052a1.548,1.548,0,0,0-1.557,1.545V93.232a1.548,1.548,0,0,0,1.553,1.545h.657a1.549,1.549,0,0,0,1.553-1.545V87.724a.207.207,0,0,1,.208-.206h4.99c.31,0,.591.01.841.03a5.06,5.06,0,0,1,.652.092h.006a2.055,2.055,0,0,1,.438.153,1.261,1.261,0,0,1,.272.165.816.816,0,0,1,.165.209.526.526,0,0,1,.05.149c.03.193.057.382.081.569.02.157.039.313.056.467,0,.055.009.112.009.168v3.711a1.55,1.55,0,0,0,1.554,1.545h.658a1.549,1.549,0,0,0,1.553-1.545v-4.45a1.07,1.07,0,0,0-.009-.139c0-.027-.008-.054-.013-.079-.009-.045-.016-.092-.021-.138-.019-.169-.045-.335-.077-.5q-.057-.282-.137-.55c-.021-.068-.044-.134-.068-.2s-.05-.131-.075-.2c-.012-.028-.022-.057-.032-.085a.9.9,0,0,0-.033-.086c-.039-.091-.081-.18-.125-.268s-.09-.174-.139-.257h0v0l0,0a3.244,3.244,0,0,0-.29-.413.633.633,0,0,1-.015-.788l.06-.081a4.957,4.957,0,0,0,.339-.537l0-.008a6.112,6.112,0,0,0,.534-1.362m-3.861-.223,0,0a2.187,2.187,0,0,1-.34.379,1.593,1.593,0,0,1-.375.25h0a2.739,2.739,0,0,1-.456.171,2.275,2.275,0,0,1-.444.078c-.2.013-.38.023-.531.029s-.276.011-.375.011H187.32a.207.207,0,0,1-.208-.206v-3.63a.207.207,0,0,1,.208-.206h5.1c.214,0,.422.01.622.03a5.011,5.011,0,0,1,.575.09,2.723,2.723,0,0,1,.431.13,1.989,1.989,0,0,1,.363.191l.009.005a.94.94,0,0,1,.209.186,1.281,1.281,0,0,1,.168.262,1.446,1.446,0,0,1,.111.343,3.079,3.079,0,0,1,.054.605,3.423,3.423,0,0,1-.091.853,1.26,1.26,0,0,1-.187.426"/></g></g></svg>