<svg width="181" height="113" viewBox="0 0 181 113" fill="none" xmlns="http://www.w3.org/2000/svg">
<path d="M47.249 26.8707H32.7522V5.44089H47.249L47.2327 7.83881C45.1304 7.79501 42.6187 7.51842 40.2811 7.51842C39.5561 7.51471 38.8314 7.54854 38.1099 7.61979V14.7009C39.1479 14.7647 40.2723 14.8048 41.3929 14.8048C42.7284 14.8153 44.0632 14.7426 45.3896 14.587V17.1339C44.0424 17.0087 42.4359 16.9399 40.852 16.9399C39.9105 16.9399 38.9739 16.9649 38.1099 17.0112V24.7068C38.7861 24.7744 39.4985 24.8007 40.2285 24.8007C42.5787 24.8007 45.1116 24.5279 47.2327 24.4728L47.249 26.8707ZM119.073 24.4728C116.944 24.5279 114.412 24.8007 112.061 24.8007C111.331 24.8007 110.621 24.7744 109.946 24.7068V17.0112C110.809 16.9649 111.743 16.9399 112.687 16.9399C114.27 16.9399 115.88 17.0062 117.233 17.1339V14.587C115.904 14.7422 114.566 14.8149 113.227 14.8048C112.1 14.8048 110.982 14.7647 109.939 14.7009C109.939 14.2429 109.948 7.61979 109.948 7.61979C110.668 7.54851 111.391 7.51468 112.115 7.51842C114.446 7.51842 116.954 7.79501 119.069 7.83881V5.44089H104.585V26.8707H119.073V24.4728ZM89.9103 26.877L84.5087 26.8695V5.43964H95.263C98.1277 5.43964 101.398 7.24559 101.492 10.8725C101.605 12.0294 101.356 13.1929 100.779 14.2019C100.201 15.2109 99.3243 16.0155 98.2692 16.5044C98.1066 16.5636 97.9505 16.6395 97.8035 16.7309C99.0318 19.6094 100.16 21.8408 101.56 24.5016L102.215 25.7594L102.276 25.8783L102.801 26.8795H97.0409L96.4061 25.4402C96.0793 24.6693 93.9921 19.7533 92.9691 18.025H89.9103V26.877ZM89.8664 15.6658C90.1269 15.6658 90.4036 15.6658 90.6903 15.6658C92.4019 15.6658 94.4804 15.5632 95.561 14.2378C95.9766 13.496 96.2099 12.666 96.2417 11.8163C96.2735 10.9666 96.1028 10.1215 95.7438 9.35065C94.9637 7.97397 92.9128 7.70615 91.4553 7.70615C90.924 7.7045 90.3931 7.7392 89.8664 7.81002V15.6658ZM71.4995 26.877L66.1243 26.8695V5.43964H76.747C77.995 5.35571 79.2339 5.70327 80.2559 6.42403C81.2779 7.14478 82.0208 8.19488 82.3601 9.39821C83.0238 11.706 82.9336 14.6834 81.3197 16.5469C79.6506 18.7846 74.6998 19.0399 72.5287 19.0399C71.8876 19.0399 71.4907 19.0174 71.4907 19.0174L71.4995 20.4829V26.877ZM71.4619 16.4455C71.8939 16.4768 72.3747 16.5006 72.8793 16.5006C74.5195 16.5006 76.3676 16.2428 77.333 15.0951C77.8041 14.2207 78.065 13.2486 78.0952 12.2559C78.1254 11.2632 77.9241 10.2771 77.507 9.37568C76.7307 8.01152 74.6034 7.7487 73.0972 7.7487C72.5573 7.74712 72.0178 7.7793 71.482 7.84507L71.4619 16.4455ZM50.6697 15.4055C53.6259 17.7834 58.4765 18.9223 59.08 20.8446C59.2309 21.3312 59.2384 21.8509 59.1016 22.3416C58.9648 22.8323 58.6896 23.2733 58.3087 23.6118C57.3241 24.5016 56.0304 24.9714 54.7039 24.9208C52.6334 24.7901 50.6107 24.2418 48.7577 23.3089L48.749 25.9646C50.7891 26.8552 52.9937 27.3072 55.2198 27.2912C56.3947 27.2911 57.5662 27.1652 58.7144 26.9158C59.9622 26.6409 61.1097 26.0262 62.0297 25.1398C62.9496 24.2534 63.6063 23.1298 63.9268 21.8934C64.202 20.9208 64.1875 19.8891 63.885 18.9246C63.5826 17.9601 63.0053 17.1047 62.224 16.4631C59.7749 14.3117 56.7987 13.6334 54.7114 12.1803C54.4284 12.008 54.1868 11.7753 54.004 11.499C53.8212 11.2226 53.7016 10.9094 53.6538 10.5815C53.606 10.2537 53.6311 9.91936 53.7273 9.60233C53.8236 9.28531 53.9886 8.9934 54.2106 8.74741C54.6595 8.30886 55.1965 7.97053 55.7859 7.75479C56.3754 7.53904 57.004 7.4508 57.6301 7.49589C58.6018 7.51724 59.568 7.64909 60.5099 7.88887C61.4381 8.19963 62.3413 8.58035 63.2119 9.02776V6.34699C60.8779 5.61565 58.4537 5.2109 56.0086 5.14428C53.1639 5.14428 50.4894 5.90896 49.0207 8.28685C48.3363 9.46004 48.1259 10.8501 48.4324 12.1732C48.7388 13.4962 49.5391 14.6524 50.6697 15.4055V15.4055ZM122.569 15.4055C125.527 17.7834 130.375 18.9223 130.981 20.8446C131.131 21.3311 131.137 21.8501 131.001 22.3404C130.865 22.8307 130.591 23.2718 130.213 23.6118C129.229 24.5011 127.936 24.9709 126.61 24.9208C124.538 24.7884 122.514 24.2384 120.659 23.3039L120.65 25.9596C122.69 26.8504 124.895 27.3024 127.121 27.2862C128.297 27.286 129.469 27.1602 130.618 26.9108C131.866 26.6351 133.012 26.0201 133.932 25.1338C134.851 24.2474 135.507 23.1243 135.828 21.8884C136.102 20.9162 136.088 19.8853 135.786 18.9212C135.485 17.9571 134.909 17.1014 134.13 16.458C131.676 14.3067 128.703 13.6284 126.605 12.1753C126.322 12.003 126.081 11.7703 125.898 11.494C125.715 11.2176 125.596 10.9044 125.548 10.5765C125.5 10.2487 125.525 9.91435 125.621 9.59733C125.717 9.2803 125.882 8.98839 126.105 8.74241C126.554 8.30379 127.091 7.96544 127.681 7.74971C128.271 7.53397 128.9 7.44576 129.526 7.49089C130.498 7.51155 131.465 7.64341 132.406 7.88386C133.336 8.19415 134.241 8.57488 135.113 9.02275V6.34699C132.78 5.61523 130.356 5.21047 127.911 5.14428C125.069 5.14428 122.402 5.90896 120.921 8.28685C120.237 9.45996 120.026 10.8498 120.332 12.1728C120.639 13.4957 121.438 14.652 122.569 15.4055V15.4055ZM139.02 15.4055C141.984 17.7834 146.837 18.9223 147.421 20.8446C147.577 21.3309 147.587 21.8521 147.45 22.3438C147.312 22.8356 147.034 23.2764 146.649 23.6118C145.669 24.5019 144.378 24.9719 143.055 24.9208C140.984 24.7887 138.962 24.2386 137.109 23.3039L137.092 25.9596C139.134 26.8497 141.341 27.3016 143.569 27.2862C144.747 27.2865 145.923 27.1606 147.075 26.9108C148.324 26.6343 149.472 26.0194 150.395 25.1335C151.318 24.2476 151.978 23.1248 152.305 21.8884C152.568 20.9127 152.544 19.8818 152.235 18.9194C151.927 17.957 151.347 17.1041 150.565 16.4631C148.131 14.3117 145.149 13.6334 143.063 12.1803C142.779 12.0092 142.536 11.7774 142.352 11.5016C142.168 11.2258 142.047 10.9128 141.998 10.5849C141.948 10.257 141.972 9.92227 142.067 9.60464C142.163 9.28702 142.327 8.99431 142.548 8.74741C142.996 8.30869 143.533 7.97021 144.121 7.75444C144.71 7.53867 145.338 7.45054 145.964 7.49589C146.938 7.51701 147.906 7.64885 148.85 7.88887C149.782 8.19868 150.688 8.57942 151.562 9.02776V6.34699C149.226 5.61556 146.8 5.21082 144.353 5.14428C141.508 5.14428 138.836 5.90896 137.366 8.28685C136.679 9.45987 136.468 10.8513 136.775 12.1753C137.083 13.4993 137.886 14.6552 139.02 15.4055V15.4055ZM153.562 16.0751C153.597 5.48595 162.299 5.1155 163.982 5.1155H164.187C165.893 5.1155 174.562 5.49095 174.579 16.0751C174.606 26.693 165.831 27.2261 164.137 27.2261H164.027C162.328 27.2261 153.562 26.688 153.562 16.0751V16.0751ZM159.14 15.6583C159.111 24.0636 163.095 24.2363 163.948 24.2363H164.208C165.068 24.2363 169.059 24.0636 169.03 15.6583C168.997 7.97147 165.23 7.76247 164.231 7.76247H164.085H163.941C162.944 7.76247 159.172 7.97147 159.14 15.6583ZM25.445 25.5028C23.3878 23.1249 18.4709 16.4192 18.4709 16.4192C15.9379 13.1202 12.556 7.62104 9.19787 4.86018V26.8294H12.2029V15.7359C14.3001 18.458 16.7668 21.9285 18.6124 24.1211C19.43 25.1111 21.5297 27.4114 22.1182 27.9145C25.2332 30.7517 29.3122 32.2969 33.526 32.236C35.3638 32.2444 37.1897 31.9396 38.9251 31.3349V31.1246C38.1884 31.2816 37.437 31.3592 36.6838 31.3562C34.9796 31.3458 33.2931 31.0093 31.7155 30.365C29.2842 29.2393 27.1402 27.5769 25.445 25.5028V25.5028ZM7.21706 1.86404C9.64991 2.99054 11.7952 4.65431 13.4913 6.72996C15.5485 9.10785 20.468 15.8123 20.468 15.8123C22.9984 19.115 26.3803 24.6055 29.7334 27.3826V5.41211H26.7447V16.4993C24.6387 13.7848 22.1721 10.3093 20.324 8.11414C19.5101 7.13045 17.4116 4.83015 16.8181 4.32328C13.7001 1.48531 9.61813 -0.0598168 5.40153 0.00177288C3.56317 -0.00573486 1.73682 0.298094 0 0.900366V1.11062C0.736589 0.95627 1.4874 0.879923 2.24 0.882844C3.94627 0.891391 5.63532 1.22438 7.21706 1.86404V1.86404ZM84.4261 55.473L87.2971 52.5445L90.1507 55.473L90.8055 54.8122L87.9345 51.8874L90.8055 48.9814L90.1507 48.3193L87.2971 51.2178L84.4261 48.3131L83.7738 48.9751L86.6448 51.8811L83.7738 54.806L84.4261 55.473ZM161.971 72.9005L161.72 72.9505C161.087 73.0757 160.13 73.2547 159.853 73.8053C159.794 73.9201 159.762 74.0468 159.76 74.1759C159.757 74.305 159.784 74.4329 159.838 74.55L159.878 74.6363C159.891 74.6631 159.909 74.6866 159.932 74.7052L160.006 74.7627C160.471 75.164 161.041 75.4245 161.649 75.5137C161.819 75.515 161.987 75.4718 162.136 75.3885L162.281 75.2709C162.393 75.1243 162.493 74.9695 162.582 74.8078C162.797 74.3422 163.135 73.9444 163.561 73.6576C163.59 73.6446 163.615 73.6249 163.635 73.6001L163.939 73.2058C163.955 73.1847 163.967 73.1605 163.973 73.1346C163.979 73.1087 163.98 73.0818 163.975 73.0557C163.964 72.9839 163.938 72.9151 163.9 72.8534C163.861 72.7917 163.811 72.7383 163.751 72.6964C163.692 72.6544 163.625 72.6247 163.554 72.609C163.483 72.5934 163.41 72.592 163.338 72.6051C162.868 72.6169 162.404 72.7158 161.971 72.8967V72.9005ZM157.285 100.359C157.311 100.399 157.32 100.446 157.312 100.493C157.303 100.539 157.278 100.581 157.24 100.609C157.207 100.634 157.167 100.648 157.125 100.648C157.099 100.648 157.073 100.643 157.049 100.632C157.025 100.621 157.004 100.606 156.986 100.587L156.647 100.211C154.558 97.9034 153.038 92.7571 152.515 88.9475C152.366 87.8624 152.226 86.2993 152.098 84.2956C150.492 87.3481 148.433 89.7723 146.635 90.7009C146.593 90.7259 146.539 90.7522 146.485 90.7785L146.437 90.801C146.034 90.9938 145.599 91.1109 145.154 91.1464C144.987 91.1589 144.836 91.1665 144.691 91.1665C143.65 91.1391 142.644 90.7892 141.811 90.1652C140.442 89.3351 139.453 88.0015 139.056 86.4507C138.839 85.3338 139.029 84.1763 139.591 83.1868C139.788 82.8694 139.917 82.514 139.967 82.1436C140.018 81.7733 139.989 81.3965 139.884 81.0379C139.82 80.9127 139.765 80.9127 139.729 80.9127C139.692 80.9127 139 80.7876 138.341 80.6311C137.83 81.4421 134.937 86.0189 134.035 87.119C133.785 87.4269 133.586 87.6897 133.425 87.9037C132.968 88.512 132.693 88.8799 132.213 88.562C132.063 88.4593 131.938 88.3233 131.849 88.1647C131.759 88.0061 131.708 87.829 131.698 87.6472C131.684 87.4781 131.71 87.3083 131.773 87.151C131.837 86.9937 131.936 86.8534 132.063 86.7411C132.136 86.6785 132.213 86.6084 132.29 86.5371C134.06 84.5357 135.712 82.4325 137.237 80.2382C136.863 80.0575 136.549 79.772 136.335 79.4165C136.12 79.0609 136.014 78.6507 136.029 78.2357C136.038 77.4432 136.353 76.6848 136.907 76.1181C137.461 75.5513 138.212 75.2196 139.005 75.192C139.225 75.1899 139.443 75.222 139.653 75.2871C139.858 75.3335 140.049 75.4289 140.208 75.5651C140.368 75.7014 140.492 75.8744 140.57 76.0693C140.835 76.7301 140.57 77.5712 139.776 78.6487L139.314 79.3058C140.208 79.3058 141.897 79.3571 142.254 80.8889C142.342 81.5492 142.23 82.2207 141.935 82.8175C141.457 83.6522 141.156 84.5762 141.051 85.5321V85.5747C141.034 85.8284 141.034 86.0831 141.051 86.3368C141.183 87.2175 141.611 88.0269 142.265 88.6313C142.92 89.2357 143.761 89.5989 144.649 89.6609H144.681C146.257 89.6609 147.936 87.6785 148.8 86.4895C149.979 84.8446 151.026 83.1087 151.93 81.2982L151.891 80.5661C151.802 78.4935 151.755 76.7189 151.755 76.0994C151.755 75.0731 151.973 71.8267 152.331 68.9657C146.221 69.1997 140.979 69.6127 138.994 69.7804C138.753 69.8633 138.491 69.8585 138.253 69.7669C138.015 69.6753 137.818 69.5028 137.695 69.2798L137.347 68.4275C137.302 68.3474 137.277 68.2574 137.274 68.1655C137.271 68.0735 137.291 67.9822 137.331 67.8994C137.39 67.8172 137.468 67.7503 137.558 67.7044C137.648 67.6584 137.748 67.6347 137.849 67.6353C143.055 67.335 148.014 67.1472 152.599 67.0746C152.688 66.5465 152.777 66.0859 152.867 65.698C153.584 62.6805 155.163 57.6194 157.662 57.6194C157.882 57.6197 158.098 57.6714 158.293 57.7703C158.489 57.8692 158.659 58.0125 158.789 58.1888C160.166 59.941 159.116 65.4814 158.78 67.0671C172.224 67.4563 175.692 69.5965 175.835 69.6878C175.872 69.712 175.899 69.7481 175.912 69.79C175.924 69.8319 175.922 69.877 175.906 69.9175C175.889 69.958 175.859 69.9915 175.82 70.0121C175.781 70.0328 175.737 70.0394 175.694 70.0307L174.632 69.808C169.945 69.0197 165.193 68.6802 160.442 68.7942C159.749 68.7942 159.053 68.7942 158.36 68.808C158.208 69.3687 158.059 69.8705 157.903 70.3399C156.795 73.6664 155.172 77.7977 153.771 80.8639L153.706 81.0016C153.403 94.0387 157.247 100.294 157.285 100.355V100.359ZM155.768 71.2422C155.911 70.669 156.041 70.1509 156.164 69.7091C156.25 69.4112 156.33 69.1221 156.405 68.833C155.743 68.8497 155.087 68.8668 154.436 68.8843V68.9144C154.002 71.8696 153.753 74.849 153.691 77.8352C154.566 75.6995 155.261 73.4941 155.768 71.2422V71.2422ZM156.269 67.0459H156.861C157.502 64.8026 157.741 62.4638 157.567 60.1374C157.555 59.9825 157.528 59.8291 157.486 59.6794C157.024 60.1287 155.8 62.23 154.785 67.0484C155.295 67.0521 155.79 67.0496 156.272 67.0496L156.269 67.0459ZM137.738 78.859C137.786 78.9475 137.861 79.0178 137.953 79.0592C137.996 78.9804 138.034 78.9053 138.067 78.8352C138.529 77.8628 138.47 77.4911 138.428 77.4398C138.428 77.4398 138.401 77.456 138.359 77.4911C138.228 77.6353 138.115 77.795 138.023 77.9666L137.988 78.0255C137.898 78.1767 137.825 78.3369 137.769 78.5035C137.712 78.6147 137.701 78.7437 137.739 78.8627L137.738 78.859ZM135.178 78.4197C133.228 87.2292 127.142 94.1301 121.325 94.1301C120.814 94.1305 120.304 94.0755 119.804 93.9661C113.894 92.6871 111.101 83.9627 113.307 73.6727C115.243 64.673 120.618 57.9848 126.091 57.7708C127.76 57.7972 129.392 58.2667 130.82 59.1312C135.59 62.0085 137.221 69.2185 135.18 78.4235L135.178 78.4197ZM120.483 63.5791C120.469 63.5962 120.456 63.6142 120.445 63.6329C118.001 66.7743 116.234 70.3879 115.256 74.2459C114.684 76.4731 114.407 78.766 114.434 81.0654V81.1705C114.434 81.2782 114.434 81.3871 114.434 81.4984C114.466 82.8814 114.607 84.2597 114.853 85.621C115.637 88.7235 117.337 92.468 120.976 92.6207C125.049 92.8085 127.829 89.4419 128.132 89.0589C129.127 87.7378 129.987 86.3203 130.7 84.8275C130.702 84.8084 130.708 84.7898 130.716 84.7724C131.83 82.5873 132.694 80.2838 133.293 77.9053C134.108 74.8037 134.314 71.5737 133.9 68.3937C133.9 68.3737 133.9 68.3562 133.9 68.3387C133.888 68.2386 133.875 68.1735 133.862 68.1071L133.836 67.9545C133.804 67.7605 133.775 67.579 133.741 67.4113C133.43 65.2286 132.623 63.146 131.383 61.3226C130.912 60.7128 130.316 60.2113 129.634 59.8522C128.952 59.4931 128.201 59.2848 127.432 59.2414C126.531 59.2017 125.631 59.3533 124.793 59.6861C123.955 60.019 123.197 60.5255 122.569 61.1725C121.846 61.9271 121.163 62.7187 120.523 63.5441C120.511 63.5576 120.498 63.5694 120.483 63.5791V63.5791ZM104.831 87.4695C104.346 89.3321 103.445 91.0607 102.196 92.5255C100.946 93.9903 99.3813 95.1533 97.6182 95.9273C97.4116 96.0136 97.21 96.0762 97.0159 96.1363L96.9433 96.1588C96.107 96.4268 95.2358 96.5698 94.3577 96.583C94.215 96.583 94.1373 96.583 94.1373 96.583H93.9332C93.105 96.5843 92.2789 96.5004 91.4679 96.3327C89.1741 95.8694 87.0898 94.6823 85.5217 92.9461C85.2825 92.6745 84.7804 92.0976 84.6039 91.8911C83.1458 90.0151 82.1229 87.8389 81.6089 85.5196C81.52 85.1441 81.4311 84.7099 81.3585 84.3382L81.3309 84.203C81.2708 83.9126 81.2145 83.6385 81.1894 83.561C81.1485 83.3925 81.0693 83.2357 80.9578 83.1029H80.949C80.9249 83.1032 80.9011 83.1083 80.8789 83.1179C80.0713 83.4346 78.6389 87.3218 78.1681 88.5983C77.7832 89.9568 76.9807 91.1599 75.8743 92.0375C75.7696 92.0901 75.6552 92.1205 75.5382 92.1268C75.4212 92.133 75.3041 92.115 75.1944 92.0738C74.2654 91.7734 74.0675 90.5031 74.6598 88.502C75.5002 85.5522 76.0248 82.5215 76.2249 79.461C76.2404 79.168 76.224 78.8743 76.1761 78.5849C75.3536 79.7727 74.6685 81.0499 74.1339 82.392C73.6831 83.352 73.1735 84.4395 72.6489 85.4795C71.0813 88.5858 69.54 90.1477 68.517 89.6621C67.762 89.2651 67.1473 88.6455 66.7566 87.8875C66.1183 86.775 65.5939 85.6009 65.1915 84.3832C64.9899 83.6573 64.8158 83.5247 64.8158 83.5234L64.7657 83.5059C64.1935 83.6611 62.7261 86.6522 61.6931 89.3342C60.8479 91.5319 60.1668 92.3942 59.4168 92.2227C59.3198 92.2048 59.2258 92.1732 59.1376 92.1289C58.8988 91.9721 58.702 91.7593 58.5644 91.5091C58.4267 91.2589 58.3522 90.9789 58.3475 90.6934C58.2973 90.1338 58.3538 89.5698 58.514 89.0314L58.5341 88.9538C58.648 88.5032 58.7607 88.1102 58.8696 87.731L59.0625 87.7423L58.8809 87.6897C58.9911 87.3068 59.0963 86.9388 59.1964 86.5371C59.6597 84.6598 60.0942 82.4909 60.4485 80.2682C60.5163 79.854 60.5581 79.436 60.5737 79.0167C60.5798 78.8322 60.5474 78.6485 60.4786 78.4773V78.4773C59.984 78.4773 57.9206 82.2318 56.6835 85.4069C55.628 88.1202 54.1918 89.0802 53.274 89.0802C53.2603 89.0802 53.2452 89.0802 53.2302 89.0802C53.1939 89.0802 53.1551 89.0802 53.1175 89.0739C53.0151 89.0647 52.9151 89.0376 52.822 88.9938C52.5745 88.8403 52.3716 88.6245 52.2336 88.3681C52.1013 88.0913 52.0126 87.7958 51.9706 87.492C51.9053 86.8664 51.881 86.2372 51.898 85.6084C51.8103 85.7749 51.7252 85.9326 51.6576 86.0565C50.7536 87.6835 49.8195 88.5145 48.8817 88.5145C48.6064 88.5172 48.3342 88.4558 48.0867 88.3352C47.8392 88.2147 47.6231 88.0383 47.4556 87.8199C47.1465 87.384 46.9724 86.867 46.9547 86.3331C46.5278 86.9075 46.0465 87.4393 45.5173 87.9213C44.9871 88.4285 44.3166 88.7647 43.5929 88.8862C43.5372 88.8926 43.4811 88.8955 43.4251 88.8949C42.7247 88.8367 42.0506 88.602 41.4656 88.2129C39.5215 86.838 38.0764 84.8696 37.3474 82.6035C37.0904 81.6673 36.6644 80.786 36.0903 80.0029C36.0584 79.9773 36.0217 79.9584 35.9823 79.9472C35.943 79.936 35.9018 79.9328 35.8612 79.9378C35.6821 79.9466 35.3816 80.0629 34.9547 80.5861C32.9901 82.974 30.5298 89.8386 30.5047 89.9074L30.4509 90.0576C30.4509 90.0576 30.3545 90.4669 29.7472 90.4944L29.5932 90.4856C29.4727 90.4839 29.3568 90.4388 29.2669 90.3585C29.177 90.2783 29.119 90.1684 29.1036 90.0488C29.0509 89.7874 29.029 89.5207 29.0385 89.2541C29.0878 88.089 29.2171 86.9286 29.4254 85.7812C29.7385 83.0979 30.0778 80.4822 30.4346 78.0042C29.4133 79.1033 28.1776 79.9816 26.8035 80.5848C27.2427 81.9761 27.2544 83.467 26.8374 84.865C26.2025 88.2829 24.7601 90.7472 23.1625 91.1414L23.0373 91.1727C22.8977 91.2058 22.7549 91.223 22.6115 91.224C22.4788 91.2402 22.3444 91.2143 22.2271 91.1502C20.0811 90.4806 20.056 86.9138 20.056 86.7611C20.1174 81.8213 22.0819 80.0317 22.9233 79.4897C23.1569 79.3395 23.4259 79.2532 23.7034 79.2394L23.93 79.272C24.0854 79.2996 24.2321 79.3635 24.3581 79.4586C24.484 79.5536 24.5858 79.6771 24.655 79.8189C24.7359 80.0417 24.7591 80.2814 24.7223 80.5155C24.6855 80.7497 24.59 80.9708 24.4446 81.158L24.3657 81.2582L23.8561 81.75C22.9803 82.6151 22.374 83.7153 22.1107 84.9176C21.8508 85.8467 21.7688 86.8166 21.8691 87.7761C21.9118 88.1227 22.0086 88.4605 22.1558 88.7773C22.2505 88.9936 22.4102 89.1752 22.6128 89.2967C22.6402 89.2958 22.667 89.3052 22.6879 89.323C22.7632 89.3734 22.8511 89.4016 22.9416 89.4045C23.0322 89.4074 23.1217 89.3848 23.2 89.3392C24.2956 88.7986 25.5477 85.1454 25.7242 83.2243C25.8495 81.8476 25.7543 81.0429 25.4388 80.8289L25.2459 80.8089C25.2004 80.804 25.1582 80.7828 25.1271 80.7492C25.096 80.7156 25.0782 80.6719 25.0769 80.6261L25.0556 79.8214C25.0543 79.7722 25.0723 79.7245 25.1057 79.6884C25.1392 79.6524 25.1855 79.6309 25.2347 79.6287L25.6103 79.6111C25.8131 79.6011 25.9596 79.5223 27.049 78.9128L27.1103 78.8778C28.5316 77.9775 29.7829 76.8335 30.8065 75.4986C31.6213 69.559 32.9117 63.6943 34.6654 57.961C34.7748 57.5591 34.9129 57.1655 35.0786 56.7834C36.6012 53.4693 37.8332 53.0113 38.9363 53.0113C39.4629 53.0022 39.9797 53.1541 40.4175 53.4468C40.7158 53.6946 40.9457 54.0145 41.0853 54.3762C41.225 54.7379 41.2696 55.1292 41.2151 55.5131V55.5281V55.5807L41.2089 55.7321C41.0386 59.7244 38.4881 67.196 33.9467 73.7415C33.3733 74.5675 32.7948 75.3397 32.2251 76.0368L32.1287 76.4736C31.6479 78.8627 31.3161 81.7825 31.117 83.8876L31.3048 83.3782C31.6685 82.1586 32.2206 81.0032 32.9413 79.9541C33.2436 79.475 33.6385 79.0611 34.1029 78.7366C34.5673 78.4121 35.0919 78.1835 35.6458 78.0643C35.876 78.0401 36.1081 78.0401 36.3382 78.0643C38.3754 78.2382 39.1241 81.1518 39.2018 81.4834C39.2519 81.6912 39.3094 81.8902 39.367 82.0892C39.3709 82.1048 39.3734 82.1207 39.3746 82.1367C39.5651 82.8419 39.8095 83.5315 40.1058 84.1992C40.4276 84.9113 41.6083 87.2605 43.1671 87.5145C43.5504 87.5475 43.9356 87.4819 44.2863 87.3239C44.637 87.166 44.9414 86.9209 45.1705 86.6122C46.054 85.5203 46.8043 84.3271 47.4055 83.0578C47.5307 82.8175 47.6459 82.6035 47.7448 82.3908L47.7824 82.3069C47.938 81.9455 48.1148 81.5937 48.312 81.2531C48.6079 80.6939 49.034 80.2141 49.5544 79.854C50.0748 79.494 50.6742 79.2643 51.302 79.1844C51.7794 79.1904 52.2466 79.3235 52.6555 79.5698C52.7385 79.4708 52.8413 79.3902 52.9573 79.3333C53.0733 79.2764 53.2 79.2444 53.3291 79.2394C53.4889 79.2432 53.6444 79.2923 53.7774 79.3809C53.9104 79.4695 54.0154 79.5941 54.0804 79.74C54.0861 79.7514 54.0912 79.7631 54.0954 79.7751L54.1417 79.9278C54.1454 79.94 54.148 79.9526 54.1493 79.9653L54.1856 80.3495L54.1593 80.7801C53.8487 84.5697 53.6885 86.6322 53.6847 86.9125C53.6802 87.06 53.6856 87.2076 53.701 87.3543C53.731 87.338 53.7636 87.318 53.8012 87.2942C54.3016 86.7996 54.7283 86.2357 55.0683 85.6197C55.2085 85.3694 55.7732 84.2981 55.9936 83.775L56.5808 82.352C56.8237 81.7625 57.0353 81.2481 57.1718 80.9303C57.6765 79.5958 58.3835 78.3468 59.2678 77.227C59.5531 76.9727 59.8974 76.7937 60.2695 76.7064C60.5623 76.6212 60.8743 76.6288 61.1626 76.7281C61.451 76.8274 61.7014 77.0135 61.8797 77.2608C63.093 78.8878 61.762 83.6824 61.4828 84.6285C60.977 86.1684 60.568 87.7383 60.2582 89.3292C61.1066 87.6071 61.859 85.8393 62.512 84.034C62.6892 83.5692 62.8983 83.1171 63.138 82.6811C63.7465 81.7012 64.3701 81.2256 65.0475 81.2256C65.378 81.2506 65.6954 81.3654 65.9655 81.5575C66.2356 81.7496 66.4481 82.0117 66.58 82.3157C66.7549 82.6826 66.8699 83.0751 66.9206 83.4783C67.1125 84.8723 67.6302 86.2014 68.4319 87.3581L68.5295 87.4832C68.6886 87.6922 68.9527 88.0377 69.1067 88.0377C69.3471 87.9888 69.9494 87.4294 71.2528 85.0578L71.348 84.8851C71.6623 84.3181 72.3171 82.8563 72.6326 82.153L72.7579 81.8827C73.4231 80.2709 74.2668 78.7386 75.2733 77.3146C75.4941 77.0209 75.8002 76.8023 76.1498 76.6888C76.4002 76.615 76.6631 76.5929 76.9223 76.6238C77.1342 76.6531 77.337 76.7292 77.5159 76.8465C77.6947 76.9638 77.8453 77.1194 77.9565 77.3021C79.0534 78.9941 77.76 83.6523 77.4895 84.5684C76.8221 86.7148 76.4515 88.1202 76.2487 89.0376C77.1847 87.1869 78.0206 85.2873 78.7529 83.3469C79.4966 81.6186 80.2266 80.8176 81.053 80.8176C81.7091 80.8176 82.2775 81.342 82.6544 82.2932C82.7856 82.6914 82.8869 83.0988 82.9574 83.5121C82.9975 83.7049 83.03 83.8651 83.0576 83.9815C83.3151 85.0566 83.6658 86.1072 84.1056 87.1215C85.6269 86.4053 86.8756 85.2164 87.6653 83.7324C87.9045 82.7547 88.284 81.8168 88.7921 80.9478C89.0848 80.4291 89.4975 79.988 89.9957 79.6614C90.4939 79.3348 91.0631 79.1322 91.6557 79.0705C92.133 79.0758 92.6003 79.2084 93.0092 79.4547C93.0925 79.3552 93.1956 79.2742 93.3121 79.2168C93.4285 79.1595 93.5556 79.1271 93.6853 79.1218C93.8458 79.1263 94.0016 79.1763 94.1347 79.2661C94.2677 79.3558 94.3724 79.4816 94.4366 79.6287L94.4929 79.8039L94.5418 80.2206L94.5017 80.8464C94.394 82.1405 94.0459 86.3894 94.0384 86.8024C94.0361 86.9361 94.0411 87.0698 94.0534 87.2029L94.1123 87.1591L94.2851 87.0264C94.3104 87.007 94.3402 86.9944 94.3718 86.9898C94.4034 86.9852 94.4356 86.9887 94.4654 87.0001L95.0413 87.2116C95.0772 87.2253 95.1081 87.2492 95.1302 87.2805L95.5672 87.9062C95.5913 87.9401 95.6034 87.981 95.6016 88.0225C95.5998 88.064 95.5841 88.1037 95.5572 88.1353L95.2467 88.5107C94.995 88.7726 94.6722 88.9551 94.318 89.0358C93.9638 89.1165 93.5937 89.0919 93.2534 88.965C92.9829 88.8094 92.7603 88.5825 92.6098 88.3092C92.4748 88.023 92.3845 87.7179 92.3418 87.4044C92.2771 86.7846 92.2528 86.1613 92.2692 85.5384C92.1791 85.7086 92.0927 85.8675 92.0188 85.9927C91.4015 87.1115 90.4199 88.4456 89.2492 88.4456H89.2103C88.9431 88.4388 88.6807 88.3735 88.4414 88.2544C88.2022 88.1353 87.9919 87.9651 87.8255 87.7561C87.4999 87.2964 87.3217 86.7486 87.3147 86.1854C86.6459 87.1694 85.7747 87.9993 84.7592 88.6196C85.096 89.537 87.0342 94.244 91.6181 95.2527C94.7972 95.9498 98.278 94.4154 101.417 90.9312L101.505 90.8348C101.796 90.5294 102.019 90.2804 102.149 90.1302C102.41 89.8336 104.483 87.3768 104.503 87.3456C104.531 87.3136 104.567 87.2915 104.608 87.2827C104.649 87.2739 104.692 87.2788 104.73 87.2967C104.762 87.3127 104.789 87.3374 104.807 87.368C104.826 87.3986 104.835 87.4338 104.834 87.4695H104.831ZM89.3719 84.9802V84.9902C88.9599 86.512 89.0438 86.9689 89.1853 87.084C89.1939 87.092 89.2043 87.0977 89.2157 87.1006C89.2271 87.1034 89.2391 87.1033 89.2504 87.1003C89.3644 87.0765 89.7074 86.8762 90.4336 85.5158C90.5892 85.2475 90.73 84.9709 90.8556 84.6873L92.0539 82.2606C92.2698 81.8844 92.4313 81.4795 92.5334 81.0579C92.5347 81.0419 92.5372 81.026 92.5409 81.0103C92.6035 80.7926 92.6411 80.6224 92.6586 80.5373C92.5765 80.3858 92.4562 80.2584 92.3098 80.1675C92.1633 80.0766 91.9957 80.0255 91.8235 80.0191H91.8059C91.2613 80.0191 90.4725 81.322 89.9215 83.1392L89.9015 83.203C89.6911 83.7848 89.5143 84.3782 89.3719 84.9802V84.9802ZM51.6401 80.2882H51.595C51.3273 80.3289 51.0739 80.4357 50.8579 80.5989C50.6419 80.7622 50.47 80.9767 50.3579 81.2231C50.0438 81.841 49.7865 82.4861 49.5891 83.1504L49.5779 83.188C49.4527 83.5222 49.3475 83.8663 49.2423 84.2355L49.0858 84.815C49.062 84.9038 49.0382 84.9927 49.0157 85.0891L49.0044 85.1404C48.6137 86.6309 48.7427 87.0051 48.8541 87.0952C48.8625 87.1028 48.8726 87.1082 48.8835 87.111C48.8944 87.1139 48.9058 87.114 48.9168 87.1115C49.0107 87.094 49.2924 86.9476 49.8596 85.9614C50.1068 85.5946 50.3197 85.2058 50.4956 84.8L51.6952 82.3657C51.8867 82.0157 52.0412 81.6466 52.1559 81.2644C52.1789 81.2013 52.1944 81.1358 52.2022 81.0692C52.2022 81.053 52.2047 81.037 52.2098 81.0216C52.226 80.9653 52.2398 80.914 52.2523 80.8652C52.1184 80.5035 51.913 80.307 51.6401 80.2882ZM39.1016 55.3479C39.0419 55.2547 38.9543 55.1828 38.8512 55.1426C38.7838 55.1274 38.7149 55.1194 38.6458 55.1188C37.6579 55.1188 36.7677 56.7458 35.3591 61.0173C34.2793 64.8254 33.4429 68.6983 32.8549 72.6126C35.3721 68.7495 37.3049 64.5361 38.5907 60.1087C38.8643 59.3198 39.0766 58.511 39.2256 57.6895C39.5048 56.2127 39.2694 55.5982 39.1016 55.3479ZM21.7251 91.8923C21.8598 92.0596 21.9391 92.2648 21.9519 92.4792C21.9647 92.6936 21.9104 92.9067 21.7964 93.0888L21.5385 93.3504C21.5093 93.3809 21.4703 93.4004 21.4283 93.4054L20.8536 93.478C20.8288 93.483 20.8033 93.483 20.7785 93.478L20.7008 93.4555C20.4517 93.3929 20.2213 93.2712 20.0292 93.1006C19.8372 92.93 19.6892 92.7156 19.5978 92.4756C19.3799 92.1001 18.6336 92.06 18.2079 92.0813C18.0489 92.0813 17.8786 92.1013 17.6983 92.1251H17.5331L17.4742 92.1339C17.3265 93.3854 16.1946 101.632 11.5706 107.331C8.82475 110.44 6.75003 111.389 5.49293 111.636C5.28645 111.677 5.07712 111.7 4.86689 111.708H4.66905C4.31383 111.708 3.95932 111.676 3.60978 111.613C3.04109 111.446 2.52367 111.139 2.10557 110.719C1.68747 110.3 1.38226 109.781 1.21829 109.212C0.956277 108.407 0.829354 107.563 0.842659 106.717C0.863089 106.429 0.911739 106.145 0.987903 105.867L1.03799 105.658C1.84125 102.784 3.31868 100.143 5.34769 97.9535C7.35568 95.5857 9.81606 93.6421 12.5848 92.2365C13.7454 91.6501 14.9823 91.2289 16.2597 90.985C16.4212 89.8173 16.5101 88.6071 16.5339 88.3305C16.746 84.6284 16.6731 80.9155 16.316 77.2245C16.1532 74.1908 15.988 72.057 15.7764 70.2886C15.129 63.0134 14.1486 60.4729 13.4412 59.6181C13.3754 59.5766 13.2995 59.5542 13.2217 59.5531C13.144 59.552 13.0674 59.5723 13.0005 59.6118C11.4429 60.2576 8.42658 66.1197 7.92449 71.5726C7.4517 75.9541 7.99672 80.3856 9.51716 84.5221C9.98919 85.5146 10.644 86.1403 11.2 86.1253C11.7008 86.1078 12.0126 85.5671 12.1904 85.1166C12.3253 84.7809 12.4411 84.4379 12.5372 84.0891L12.5435 84.0578C12.6061 83.8513 12.6549 83.6698 12.6862 83.5172C12.7392 83.2426 12.7706 82.9643 12.7801 82.6849C12.7664 82.2484 12.8615 81.8153 13.0568 81.4246C13.1626 81.2534 13.3098 81.1116 13.4849 81.0123C13.66 80.913 13.8572 80.8594 14.0585 80.8564C14.132 80.8457 14.207 80.8499 14.2789 80.8689C14.4538 80.907 14.6194 80.9795 14.766 81.0823C14.9126 81.1851 15.0372 81.3161 15.1326 81.4676C15.2279 81.6191 15.2921 81.788 15.3214 81.9646C15.3507 82.1411 15.3444 82.3218 15.3031 82.4959C15.2666 83.385 15.0092 84.251 14.5541 85.0158C14.099 85.7805 13.4605 86.4199 12.6962 86.8762C12.1682 87.1643 11.5872 87.3423 10.9884 87.3994C10.8628 87.4054 10.7369 87.3983 10.6127 87.3781C10.1499 87.3048 9.71646 87.1047 9.36064 86.7999C8.53092 85.9674 7.89258 84.9642 7.49002 83.8601C6.03008 80.1881 5.17866 70.9243 9.10647 61.6968C9.76955 60.1746 10.9164 58.9134 12.3694 58.1087C12.5962 58.0117 12.8391 57.9574 13.0856 57.9485C13.4669 57.946 13.8456 58.0117 14.2037 58.1425C17.066 59.0987 17.523 62.8082 17.8235 67.559L17.9487 69.4976C18.4049 76.5994 18.3212 83.7256 17.6983 90.8148H17.8498C18.0514 90.8035 18.2668 90.7948 18.4859 90.7847L18.819 90.7735C19.3582 90.7043 19.9062 90.7703 20.4135 90.9656C20.9209 91.1609 21.3716 91.4794 21.7251 91.8923V91.8923ZM6.45579 98.6343C2.4804 103.19 2.2137 106.347 2.40777 107.824C2.4398 108.286 2.5658 108.737 2.77808 109.149C2.99036 109.56 3.28444 109.924 3.64234 110.218C3.85727 110.348 4.10529 110.412 4.35603 110.402C4.45199 110.398 4.54769 110.39 4.64276 110.376L4.85061 110.351C5.31614 110.284 5.77005 110.153 6.19911 109.961C6.991 109.597 7.7322 109.132 8.40405 108.578C8.74461 108.275 9.0376 107.987 9.44328 107.589L9.77008 107.267C14.2025 102.421 15.2893 96.3077 15.8114 93.3754C15.859 93.1063 15.9016 92.8648 15.9366 92.6545C15.9467 92.6032 15.9567 92.5169 15.9654 92.423C12.2313 93.4652 8.91015 95.6345 6.45579 98.6343V98.6343ZM180.997 85.9376C180.103 89.3826 178.45 92.5846 176.161 95.3102V95.3904C175.757 99.1746 174.549 102.829 172.617 106.108C171.072 108.672 168.976 110.861 166.482 112.517C165.986 112.805 165.427 112.969 164.854 112.996C164.313 112.996 163.041 112.769 162.935 110.676C162.828 108.584 164.455 105.341 165.651 103.718C167.492 101.167 169.649 98.8585 172.069 96.8471C172.505 96.4717 173.36 95.697 173.832 95.269L174.386 94.7809C174.408 92.6608 174.278 89.3993 173.827 88.8649C173.367 88.5432 172.822 88.3647 172.261 88.3518C171.7 88.3389 171.147 88.4922 170.673 88.7923C169.756 89.3805 169.045 89.4181 168.419 88.9012C168.234 88.6898 168.118 88.4269 168.086 88.1477C168.055 87.8685 168.11 87.5864 168.244 87.3393C168.341 87.0952 168.458 86.8599 168.596 86.6359C168.968 86.0564 169.376 85.5009 169.818 84.9727C170.131 84.5637 170.336 84.0825 170.415 83.5735C170.548 82.5585 170.415 81.5264 170.028 80.5786C169.967 80.442 169.866 80.3276 169.737 80.2514C169.609 80.1751 169.459 80.1408 169.31 80.1531C169.084 80.1531 168.662 80.3746 167.933 81.4284C167.713 81.8038 167.373 82.4909 166.98 83.2906C166.1 85.2523 165.034 87.1255 163.798 88.8849C163.267 89.6855 162.535 90.3319 161.675 90.7591C160.814 91.1863 159.857 91.379 158.898 91.3179C158.759 91.3184 158.619 91.3088 158.481 91.2891H158.469C157.069 91.0951 156.257 89.9274 156.057 87.8186C155.893 86.0753 157.522 82.0178 158.218 80.2845L158.377 79.8865C158.455 79.678 158.596 79.4986 158.78 79.3726C158.963 79.2466 159.181 79.18 159.404 79.1819C159.539 79.1742 159.674 79.196 159.8 79.2457C159.926 79.2954 160.039 79.3719 160.133 79.4697C160.195 79.5725 160.234 79.6878 160.247 79.8074C160.26 79.927 160.247 80.048 160.208 80.1618C160.195 80.2145 160.187 80.268 160.183 80.322C160.18 80.3637 160.18 80.4055 160.183 80.4472L160.205 80.5385C160.214 80.5709 160.214 80.605 160.205 80.6374L160.009 81.2982C160.004 81.3145 159.997 81.33 159.989 81.3445C158.824 82.9934 158.166 84.9464 158.095 86.9638C158.065 87.5814 158.085 88.2004 158.154 88.8148C158.195 89.0591 158.3 89.2882 158.458 89.4789C158.616 89.6695 158.822 89.8148 159.055 89.8999C159.44 89.9903 159.844 89.9738 160.221 89.8523C160.598 89.7308 160.935 89.5089 161.196 89.2103C163.118 87.4952 164.577 85.3238 165.439 82.8964C166.502 80.0267 167.818 79.267 168.513 79.073L168.638 79.053C169.024 79.0043 169.416 79.0285 169.794 79.1243C170.291 79.2553 170.747 79.5099 171.119 79.8644C171.491 80.2189 171.768 80.6617 171.922 81.1518C172.219 81.955 172.33 82.8146 172.249 83.6668C172.168 84.5191 171.896 85.3422 171.454 86.0753C171.21 86.4096 170.992 86.7619 170.802 87.129C170.889 87.1103 170.978 87.094 171.07 87.0815C171.711 87.0336 172.356 87.0984 172.975 87.273C174.748 87.8612 175.893 89.0251 176.074 92.9374C177.967 90.8321 179.506 88.4333 180.629 85.835C180.648 85.7922 180.681 85.7578 180.724 85.7383C180.766 85.7187 180.814 85.7155 180.858 85.7291C180.903 85.7428 180.941 85.7724 180.965 85.8122C180.989 85.8521 180.997 85.8994 180.989 85.9451L180.997 85.9376ZM173.871 97.2363C170.033 100.473 166.934 104.493 164.782 109.027C164.381 110.094 164.312 111.006 164.608 111.349C164.676 111.418 164.764 111.467 164.859 111.489C164.955 111.512 165.055 111.506 165.147 111.474C165.165 111.464 165.19 111.454 165.216 111.441C166.318 110.765 167.328 109.95 168.221 109.016L168.251 108.989C168.457 108.799 168.668 108.594 168.915 108.341C171.754 105.075 173.64 101.092 174.366 96.8271C174.23 96.9347 174.065 97.0736 173.871 97.2363V97.2363Z" fill="black"/>
</svg>
