<?xml version="1.0" encoding="UTF-8" standalone="no"?>
<!-- Created with Inkscape (http://www.inkscape.org/) -->

<svg
   width="902.25842mm"
   height="80.016113mm"
   viewBox="0 0 902.25842 80.016113"
   version="1.1"
   id="svg5"
   xml:space="preserve"
   inkscape:version="1.2 (dc2aedaf03, 2022-05-15)"
   sodipodi:docname="drawing.svg"
   xmlns:inkscape="http://www.inkscape.org/namespaces/inkscape"
   xmlns:sodipodi="http://sodipodi.sourceforge.net/DTD/sodipodi-0.dtd"
   xmlns="http://www.w3.org/2000/svg"
   xmlns:svg="http://www.w3.org/2000/svg"><sodipodi:namedview
     id="namedview7"
     pagecolor="#ffffff"
     bordercolor="#666666"
     borderopacity="1.0"
     inkscape:showpageshadow="2"
     inkscape:pageopacity="0.0"
     inkscape:pagecheckerboard="0"
     inkscape:deskcolor="#d1d1d1"
     inkscape:document-units="mm"
     showgrid="false"
     inkscape:zoom="0.2102413"
     inkscape:cx="2185.5839"
     inkscape:cy="-323.43788"
     inkscape:window-width="1920"
     inkscape:window-height="1017"
     inkscape:window-x="-8"
     inkscape:window-y="-8"
     inkscape:window-maximized="1"
     inkscape:current-layer="layer1" /><defs
     id="defs2" /><g
     inkscape:label="Layer 1"
     inkscape:groupmode="layer"
     id="layer1"
     transform="translate(448.86069,-110.60133)"><path
       d="m -273.90903,129.51564 h -24.1635 v 48.32699 h 12.21524 v -14.41799 -3.27075 c 0,0 17.4885,0.9345 22.42798,-5.54025 3.67125,-4.20526 3.87152,-10.947 2.403,-16.08674 -2.0025,-6.0075 -6.408,-9.01126 -12.88272,-9.01126 z m 1.40173,21.7605 c -2.87025,3.40426 -9.21149,3.3375 -13.41673,3.07049 l 0.0669,-19.35748 c 0,0 10.88021,-1.53524 13.75047,3.40424 1.66875,2.93701 2.06926,9.54524 -0.4005,12.88275 z m -103.99642,34.37622 c -4.40549,-1.602 -10.68001,-6.47475 -14.28451,-10.94697 -4.67249,-5.34001 -15.88648,-20.49224 -15.88648,-20.49224 -5.80723,-7.47602 -13.48348,-19.82475 -21.15973,-26.03249 v 49.52846 h 6.80849 V 152.6779 c 4.806,6.14098 10.413,13.95073 14.61824,18.89022 1.86901,2.20276 6.67501,7.40925 8.00999,8.544 8.81099,8.544 24.89773,12.4155 38.38125,7.67625 v -0.46726 c -4.67252,1.068 -10.61326,0.6675 -16.48725,-1.66875 z m -41.58522,-53.26646 c 4.67249,5.34 15.88648,20.49223 15.88648,20.49223 5.80723,7.476 13.48349,19.82475 21.15973,26.03249 v -49.46171 h -6.80849 v 24.96447 c -4.80599,-6.14098 -10.41299,-13.95074 -14.61823,-18.89023 -1.86901,-2.20274 -6.67501,-7.40924 -8.00999,-8.54399 -8.811,-8.544 -24.89775,-12.41549 -38.38125,-7.74301 v 0.46726 c 4.60576,-1.00126 10.61326,-0.60076 16.48725,1.73551 4.33874,1.66873 10.68,6.54148 14.2845,10.94698 z m 76.96268,2.53651 0.0668,-5.40677 h -33.04121 v 48.32699 h 33.04121 l -0.0668,-5.40676 c -6.34125,0.13345 -14.28448,1.13475 -20.82598,0.53401 v -17.355 c 5.27324,-0.26698 11.68124,-0.20032 16.62074,0.26701 v -5.74049 c -5.00625,0.60073 -11.28074,0.60073 -16.62074,0.26698 v -15.95323 c 6.5415,-0.73424 14.48473,0.33374 20.82598,0.46726 z m 34.17599,19.42422 c -5.607,-4.806 -12.34874,-6.34125 -17.15474,-9.61199 -3.3375,-2.60324 -2.87025,-5.94075 -1.13474,-7.74299 4.005,-4.47225 12.41549,-2.33624 14.35123,-1.93574 2.46976,0.73425 3.80474,1.53524 6.14101,2.53648 v -6.07425 c -10.0125,-2.93698 -26.03249,-5.67373 -32.37375,4.4055 -2.33624,4.13851 -2.93698,11.68125 3.73801,16.01999 6.74173,5.34 17.82225,7.94327 19.15723,12.28201 0.86775,2.33624 -0.20032,4.60573 -1.73549,6.20773 -6.00749,5.54024 -15.55276,2.06925 -21.76049,-0.66749 v 6.0075 c 6.74174,3.00374 15.21899,3.80473 22.76173,2.136 5.13974,-1.13477 10.947,-5.67375 11.88148,-11.3475 0.93451,-5.54024 -0.20031,-9.14474 -3.87148,-12.21525 z m 91.24718,20.89274 -1.46848,-2.87026 c -3.204,-6.00749 -5.80727,-11.01372 -8.61076,-17.48847 0.26702,-0.20031 0.20031,-0.13346 1.06802,-0.53401 4.47225,-2.13598 7.40923,-6.0075 7.34247,-12.68249 -0.20031,-8.21023 -7.67622,-12.28199 -14.21773,-12.21523 h -24.49723 v 48.32697 h 12.28198 v -19.95824 h 7.00875 c 2.33626,3.87149 7.0755,14.95198 7.80974,16.68748 l 1.46852,3.27076 h 13.14973 l -1.20149,-2.26949 c -0.0669,-0.0668 -0.13347,-0.13346 -0.13347,-0.26702 z m -15.21898,-25.89898 c -2.87025,3.471 -8.87776,3.204 -13.01624,3.204 v -17.68874 c 0,0 10.54649,-1.602 13.41674,3.47098 1.53524,2.80351 1.73551,8.14351 -0.4005,11.01376 z M -74.66042,128.7814 c -3.203994,0 -23.896499,0.33374 -23.963249,24.6975 0,24.23022 20.425485,25.16473 23.963249,25.16473 3.537743,0 24.029986,-0.93451 23.963231,-25.16473 -0.06686,-24.36376 -20.692503,-24.76426 -23.963231,-24.6975 z m 0.133457,43.05373 h -0.200313 c -1.335003,0 -11.213989,0.4005 -11.147234,-19.3575 0.06685,-18.28947 9.678721,-17.82222 11.280718,-17.82222 1.602002,0 11.213995,-0.53401 11.28075,17.82222 0,19.82475 -9.878986,19.3575 -11.213995,19.3575 z m -68.418697,-17.4885 c -5.607,-4.806 -12.34874,-6.34125 -17.15474,-9.61199 -3.3375,-2.60324 -2.87025,-5.94075 -1.13474,-7.74299 4.00499,-4.47225 12.41548,-2.33624 14.35124,-1.93574 2.46975,0.73425 3.80473,1.53524 6.14099,2.53648 v -6.07425 c -10.01248,-2.93698 -26.03248,-5.67373 -32.37375,4.4055 -2.33623,4.13851 -2.93697,11.68125 3.73802,16.01999 6.74174,5.34 17.82225,7.94327 19.15723,12.28201 0.86775,2.33624 -0.20032,4.60573 -1.73549,6.20773 -6.00749,5.54024 -15.55276,2.06925 -21.76049,-0.66749 v 6.0075 c 6.74175,3.00374 15.21899,3.80473 22.76173,2.136 5.13975,-1.13477 10.947,-5.67375 11.88151,-11.3475 0.93448,-5.54024 -0.20032,-9.14474 -3.87151,-12.21525 z m 37.51346,0 c -5.54024,-4.806 -12.34874,-6.34125 -17.08798,-9.61199 -3.40423,-2.60324 -2.87025,-5.94075 -1.20149,-7.74299 4.00499,-4.47225 12.41549,-2.33624 14.35123,-1.93574 2.46976,0.73425 3.80476,1.53524 6.20776,2.53648 v -6.07425 c -10.01249,-2.93698 -26.03248,-5.67373 -32.37373,4.4055 -2.33626,4.13851 -2.937,11.68125 3.73798,16.01999 6.74175,5.34 17.82226,7.94327 19.15724,12.28201 0.86775,2.33624 -0.13346,4.60573 -1.80224,6.20773 -5.94074,5.54024 -15.55273,2.06925 -21.76049,-0.66749 l -0.0669,6.0075 c 6.74177,3.00374 15.21899,3.80473 22.76175,2.136 5.2065,-1.13477 10.94698,-5.67375 11.94824,-11.3475 0.93448,-5.54024 -0.20031,-9.14474 -3.87151,-12.21525 z m -104.93088,23.42925 h 33.04122 v -5.40677 c -6.34125,0.13347 -14.28448,1.13478 -20.82598,0.53401 v -17.355 c 5.27324,-0.26698 11.68124,-0.20031 16.62074,0.26703 v -5.74051 c -5.00626,0.60076 -11.28074,0.60076 -16.62074,0.26699 V 134.3884 c 6.47474,-0.66749 14.41798,0.40049 20.82598,0.46725 v -5.40674 h -33.04122 z"
       id="path2"
       sodipodi:nodetypes="scccccccsccccccccccccccccccccccccccccccccccccccccccccccccccccccccccccccccccccccccccccccccsccsscscsccccccccccccccccccccccccccccccccccccccccccc"
       style="stroke-width:0.667499" /><g
       id="g399"
       transform="matrix(0.72997191,0,0,0.72997191,-180.11765,-142.87616)"><g
         id="g365"
         transform="matrix(1.0062317,0,0,1.0062317,299.03993,336.97924)">
	<path
   d="m 21.8,27.6 c 0,-3.1 1.3,-3.2 5,-3.2 6.1,0 8.6,3.7 8.6,9.4 0,9.5 -4.3,9.8 -11.8,9.8 h -1.8 z m -9.7,-3.1 c 2.8,0 4.1,0.3 4.1,3.1 v 29.1 c 0,2.8 -0.9,3.1 -4,3.1 v 1.5 h 14.5 v -1.5 c -2.9,0 -4.9,-0.3 -4.9,-3.1 V 45.3 h 5 c 6.8,0 14.7,-2.8 14.7,-10.9 C 41.4,26.5 35.2,23 28,23 22.6,23 17.3,23 12,23.1 v 1.4 z"
   id="path343" />
	<path
   d="m 57.4,61.3 v -1.5 c 3,0 5,-0.3 5,-3.1 V 27.6 c 0,-2.8 -2,-3.1 -5,-3.1 v -1.4 h 15.8 v 1.4 C 70,24.5 68,24.8 68,27.6 v 29.1 c 0,2.8 2,3.1 5.2,3.1 v 1.5 z"
   id="path345" />
	<path
   d="m 89.9,61.3 v -1.5 c 2.7,0 4.3,-0.3 4.3,-3.1 V 27.6 c 0,-2.8 -2,-3.1 -4.5,-3.1 V 23.1 H 118 l 2.7,8.9 -1.2,0.3 c -0.8,-1.2 -1.6,-2.4 -2.5,-3.5 -2.8,-3.7 -5.6,-4.3 -8.8,-4.3 H 99.8 V 41 h 3.1 c 5.6,-0.1 7.8,-0.7 9.1,-7 h 1.2 V 50.5 H 112 C 111.4,44.3 109,43 103.6,43 h -3.8 v 14.1 c 0,2.5 1.8,2.7 3.8,2.7 h 6.2 c 2.7,0 4.2,-0.5 6.4,-2.6 1.9,-1.9 3.6,-3.8 5,-6.1 l 0.9,0.3 -2.2,9.9 z"
   id="path347" />
	<path
   d="m 205,42.3 c -1.7,0.1 -3.3,0.2 -5,0.2 V 27.6 c 0,-2.9 1.4,-3.3 4.2,-3.3 5.8,0 9.5,3.2 9.5,8.9 0.1,5.7 -3,8.7 -8.7,9.1 z M 190.6,24.5 c 2.6,0 3.9,0.3 3.9,2.8 v 29.4 c 0.2,3.1 -1,3.4 -4.1,3.4 v 1.2 h 14.4 v -1.2 c -3.4,0 -4.7,-0.3 -4.7,-3.1 V 44.3 c 2.4,0.1 4.9,0.4 6.6,2.3 3.3,3.4 7.8,10.7 10.1,14.7 h 9.2 v -1.2 c -2.5,0 -4.3,-1 -5.3,-3.1 -2.2,-4.6 -6,-9.9 -9.5,-13.6 5.2,-1.7 8.7,-4.3 8.7,-10.1 0,-7.9 -7.5,-10.4 -14.1,-10.4 -5.1,0 -10.2,0.2 -15.1,0.2 v 1.4 z"
   id="path349" />
	<path
   d="m 240.5,61.3 v -1.5 c 2.7,0 4.3,-0.3 4.3,-3.1 V 27.6 c 0,-2.8 -2,-3.1 -4.5,-3.1 v -1.4 h 28.3 l 2.7,8.9 -1.2,0.3 c -0.8,-1.2 -1.6,-2.4 -2.5,-3.5 -2.8,-3.7 -5.6,-4.3 -8.8,-4.3 h -8.4 V 41 h 3.1 c 5.6,-0.1 7.8,-0.7 9.1,-7 h 1.2 v 16.5 h -1.2 C 262,44.3 259.6,43 254.2,43 h -3.8 v 14.1 c 0,2.5 1.8,2.7 3.8,2.7 h 6.2 c 2.7,0 4.2,-0.5 6.4,-2.6 1.9,-1.9 3.6,-3.8 5,-6.1 l 0.9,0.3 -2.2,9.9 z"
   id="path351" />
	<path
   d="m 313.4,61.3 v -1.5 c 2.3,0 4.3,-0.3 4.3,-3.1 V 27.6 c 0,-2.8 -2,-3.1 -4.1,-3.1 v -1.4 h 15 v 1.4 c -3.3,0 -5.2,0.3 -5.2,3.1 v 13.3 h 20.3 V 27.6 c 0,-2.8 -2,-3.1 -4.9,-3.1 v -1.4 h 14.7 v 1.4 c -2.3,0 -4.2,0.3 -4.2,3.1 v 29.1 c 0,2.8 1.5,3.1 4.1,3.1 v 1.5 h -14.6 v -1.5 c 2.9,0 4.9,-0.3 4.9,-3.1 V 43 h -20.3 v 13.8 c 0,2.8 1.3,3.1 4.6,3.1 v 1.5 h -14.6 z"
   id="path353" />
	<path
   d="m 370.3,61.3 v -1.5 c 2.6,0 4.3,-0.3 4.3,-3.1 V 27.6 c 0,-2.8 -2,-3.1 -4.5,-3.1 v -1.4 h 28.3 l 2.7,8.9 -1.2,0.3 c -0.8,-1.2 -1.6,-2.4 -2.5,-3.5 -2.9,-3.7 -5.7,-4.3 -8.9,-4.3 h -8.4 V 41 h 3 c 5.6,-0.1 7.8,-0.7 9.1,-7 h 0.9 v 16.5 h -0.9 c -0.6,-6.2 -3,-7.5 -8.3,-7.5 h -3.8 v 14.1 c 0,2.5 1.8,2.7 3.8,2.7 h 6.2 c 2.7,0 4.2,-0.2 6.5,-2.4 1.9,-1.9 3.6,-4 5,-6.4 l 0.9,0.3 -2.2,9.9 h -30 z"
   id="path355" />
	<path
   d="m 468.5,61.3 v -1.5 c 2.9,0 4.9,-0.3 4.9,-3.1 V 27.1 c -0.2,-2.4 -2.3,-2.4 -4.4,-2.6 v -1.4 h 9.9 l 13.7,31.1 13.8,-31.1 h 9.6 v 1.2 c -2.9,0.2 -4.2,0.6 -4.2,3.6 v 28.9 c 0,2.8 1.5,3.1 4.2,3.1 v 1.5 h -14.4 v -1.5 c 3.9,-0.3 4.6,-0.7 4.7,-3.1 V 27.9 h -0.1 l -14.4,33.4 h -1 l -15.4,-33 h -0.1 v 28.4 c 0,2.3 2,3.1 5.1,3.1 v 1.5 z"
   id="path357" />
	<path
   d="m 544.3,19.7 8.1,-8.2 c 0.5,-0.6 1.5,-1.3 2.3,-1.3 1.4,0 1.9,0.7 1.9,2.1 0,0.8 -1,1.7 -1.6,2 l -8.6,5.4 z m -11.1,41.6 v -1.5 c 2.7,0 4.3,-0.3 4.3,-3.1 V 27.6 c 0,-2.8 -2,-3.1 -4.5,-3.1 v -1.4 h 28.3 l 2.7,8.9 -1.2,0.3 c -0.8,-1.2 -1.6,-2.4 -2.5,-3.5 -2.8,-3.7 -5.6,-4.3 -8.8,-4.3 h -8.4 V 41 h 3 c 5.6,-0.1 7.9,-0.7 9.1,-7 h 1.2 v 16.5 h -1.2 c -0.6,-6.2 -3,-7.5 -8.4,-7.5 H 543 v 14.1 c 0,2.5 1.8,2.7 3.8,2.7 h 6.2 c 2.7,0 4.2,-0.5 6.4,-2.6 1.9,-1.9 3.6,-3.8 5,-6.1 l 0.9,0.3 -2.2,9.9 z"
   id="path359" />
	<path
   d="m 155,42.3 c -1.7,0.1 -3.3,0.2 -5,0.2 V 27.6 c 0,-2.9 1.4,-3.3 4.2,-3.3 5.8,0 9.5,3.2 9.5,8.9 0,5.7 -3,8.7 -8.7,9.1 z M 140.5,24.5 c 2.5,0 3.9,0.3 3.9,2.8 v 29.4 c 0.2,3.1 -1,3.4 -4.1,3.4 v 1.2 h 14.4 V 60.1 C 151.3,60.1 150,59.8 150,57 V 44.3 c 2.4,0.1 4.9,0.4 6.6,2.3 3.3,3.4 7.8,10.7 10.1,14.7 h 9.2 v -1.2 c -2.6,0 -4.3,-1 -5.3,-3.1 -2.2,-4.6 -6,-9.9 -9.5,-13.6 5.2,-1.7 8.7,-4.3 8.7,-10.1 0,-7.9 -7.5,-10.4 -14.1,-10.4 -5.1,0 -10.2,0.2 -15.1,0.2 v 1.4 z"
   id="path361" />
	<path
   d="m 435.3,42.3 c -1.7,0.1 -3.4,0.2 -5,0.2 V 27.6 c 0,-2.9 1.4,-3.3 4.2,-3.3 5.9,0 9.6,3.2 9.6,8.9 -0.1,5.7 -3.1,8.7 -8.8,9.1 z M 420.8,24.5 c 2.5,0 3.9,0.3 3.9,2.8 v 29.4 c 0.2,3.1 -1,3.4 -4.1,3.4 v 1.2 H 435 v -1.2 c -3.4,0 -4.7,-0.3 -4.7,-3.1 V 44.3 c 2.4,0.1 4.9,0.4 6.6,2.3 3.3,3.4 7.7,10.7 10,14.7 h 9.2 v -1.2 c -2.6,0 -4.4,-1 -5.4,-3.1 -2.2,-4.6 -6,-9.9 -9.4,-13.6 5.1,-1.7 8.7,-4.3 8.7,-10.1 0,-7.9 -7.4,-10.4 -14.1,-10.4 -5.2,0 -10.2,0.2 -15.1,0.2 z"
   id="path363" />
</g><path
         d="m 521.33872,437.95476 v -5.1 h 10.8 c 1.9,0 3,0.9 3,2.5 0,1.6 -1.1,2.5 -3.1,2.5 h -10.7 z m 0,2.7 h 11 c 3.6,0 5.8,-2.4 5.8,-5.3 0,-3.3 -2.2,-5.2 -6.1,-5.2 h -13.6 v 18.7 h 2.9 z"
         id="path367" /><path
         d="m 553.53872,441.55476 3.7,-7.2 3.6,7.2 z m -6.7,7.2 h 3.1 l 2.4,-4.7 h 9.8 l 2.4,4.7 h 3.1 l -9.6,-18.7 h -1.8 z"
         id="path369" /><path
         d="m 585.93872,437.95476 v -5.1 h 9.9 c 2,0 3.1,0.9 3.1,2.5 0,1.7 -1.1,2.5 -3.1,2.5 h -9.9 z m 0,2.7 h 8.1 l 5.3,8.1 h 3.2 l -5.2,-8.2 c 2.8,-0.4 4.6,-2.6 4.6,-5.2 0,-3.3 -2.3,-5.2 -6.1,-5.2 h -12.8 v 18.6 h 2.9 z"
         id="path371" /><path
         d="m 619.83872,430.05476 h 3 v 18.7 h -3 z"
         id="path373" /><path
         d="m 641.63872,443.95476 c 2.7,1.8 5.9,2.7 8.5,2.7 3.5,0 5.5,-1.6 5.5,-3.6 0,-2.2 -1.9,-3.1 -5.8,-3.2 -5.7,-0.1 -8.9,-0.9 -8.9,-4.9 0,-3.1 2.9,-5.3 7.7,-5.3 3.2,0 6.2,0.9 9,2.7 l -1.5,2.4 c -2.4,-1.6 -5.2,-2.5 -7.6,-2.5 -3,0 -4.7,1.2 -4.7,2.7 0,1.8 1.9,2.3 5.8,2.3 6,0 9,2.1 9,6 0,3.3 -3.1,6.1 -8.3,6.1 -3.5,0 -7.2,-1 -10.3,-3 z"
         id="path375" /></g><rect
       style="opacity:1;fill:#000000;fill-rule:evenodd;stroke-width:4.45292;paint-order:stroke fill markers"
       id="rect628"
       width="2.1832454"
       height="73.645828"
       x="-2.1766965"
       y="116.97162" /></g></svg>
